<svg width="221" height="221" viewBox="0 0 221 221" fill="none" xmlns="http://www.w3.org/2000/svg">
<g opacity="0.12" clip-path="url(#clip0_31078_1614)">
<path d="M90.7504 128.807C103.809 129.957 116.391 124.452 124.406 114.079C132.42 103.707 134.573 90.1428 130.164 77.7975L119.543 48.0475C117.781 43.1119 114.545 38.9623 110.188 36.0492C105.831 33.1353 100.76 31.7324 95.5232 31.9893C90.2874 32.2503 85.3796 34.1487 81.33 37.4788C77.2805 40.8089 74.4719 45.26 73.2064 50.3487L73.1228 50.6903C69.855 63.43 61.3778 74.3229 49.819 80.617C46.8376 82.2409 44.2777 84.424 42.2462 87.0532C41.1417 88.4827 40.1929 90.0461 39.4167 91.7216C37.2152 96.4797 36.6167 101.708 37.6855 106.842C38.7549 111.973 41.392 116.527 45.3114 120.01C49.2307 123.493 54.0617 125.577 59.284 126.037L90.7504 128.807Z" fill="#FFC107"/>
<path d="M137.807 67.9623C136.247 73.1665 137.126 78.714 140.28 83.5829C143.282 88.2168 148.026 91.6932 153.642 93.3717C159.255 95.0471 165.128 94.7437 170.181 92.518C175.489 90.1793 179.268 86.0252 180.82 80.8255C183.949 70.3705 176.846 58.9753 164.981 55.4208C155.53 52.6019 145.873 55.5984 140.758 62.2189C139.451 63.9094 138.441 65.8363 137.807 67.9623Z" fill="#FFC107"/>
<path d="M134.07 106.877C126.284 116.953 129.29 132.368 140.77 141.238C152.253 150.111 167.929 149.131 175.715 139.055C183.5 128.979 180.492 113.564 169.009 104.691C157.529 95.8207 141.855 96.8011 134.07 106.877Z" fill="#FFC107"/>
<path d="M104.57 134.483L104.569 134.484C102.857 135.636 101.389 137.028 100.173 138.602C94.4947 145.951 94.3098 157.245 100.418 166.329C103.934 171.559 109.017 175.321 114.73 176.922C120.71 178.599 126.657 177.738 131.475 174.497C136.295 171.256 139.334 166.072 140.037 159.901C140.708 154.006 139.14 147.88 135.623 142.653C128.205 131.623 114.274 127.958 104.57 134.483Z" fill="#FFC107"/>
<path d="M77.2638 174.845L77.2689 174.844C87.7712 171.861 93.5764 159.75 90.2081 147.841C86.8317 135.936 75.5422 128.666 65.0441 131.636C61.2142 132.718 58.008 135.015 55.6435 138.075C51.5225 143.409 49.9573 151.061 52.0971 158.638C55.4743 170.543 66.7631 177.813 77.2638 174.845Z" fill="#FFC107"/>
</g>
<defs>
<clipPath id="clip0_31078_1614">
<rect width="157.222" height="157.222" fill="white" transform="translate(220.969 96.5579) rotate(127.692)"/>
</clipPath>
</defs>
</svg>
