<svg aria-hidden="true" style="position: absolute; width: 0; height: 0; overflow: hidden;" version="1.1" xmlns="http://www.w3.org/2000/svg" xmlns:xlink="http://www.w3.org/1999/xlink">
<defs>
<symbol id="logo_1" viewBox="0 0 110 32">
<path d="M4.28 31.601c-2.348-0.32-3.773-1.562-4.28-3.722l0.040-0.439 0.36-1.080c0.134-0.453 0.282-0.893 0.44-1.321 0.16-0.453 0.428-0.852 0.8-1.199 0.081-0.241 0.227-0.6 0.44-1.080 0.241-0.507 0.627-1.253 1.16-2.24 0.428-0.773 0.76-1.386 1-1.839 0.268-0.453 0.481-0.8 0.64-1.041-0.266-0.48-0.64-0.947-1.119-1.4-0.307-0.547-0.682-1.294-1.030-2.057l-0.091-0.222c-0.217-0.516-0.448-1.181-0.644-1.861l-0.034-0.14c-0.028-0.64-0.134-1.293-0.32-1.96l-0.242-1.039c-0.076-0.319-0.119-0.685-0.119-1.061 0-0.007 0-0.014 0-0.020v0.001c-0.114-0.207-0.21-0.446-0.276-0.698l-0.005-0.022 0.081-0.48c0.133-0.214 0.16-0.494 0.079-0.841-0.063-0.433-0.146-0.811-0.254-1.179l0.015 0.059c-0.081-0.346-0.16-0.707-0.241-1.079-0.034-0.232-0.053-0.501-0.053-0.774 0-0.136 0.005-0.271 0.014-0.404l-0.001 0.018c0.026-0.374 0.12-0.733 0.28-1.080 0.187-0.347 0.493-0.64 0.92-0.881l0.399-0.28 0.401 0.241c0.293 0.187 0.572 0.346 0.84 0.48l0.8 0.401c0.32 0.16 0.64 0.333 0.96 0.52 0.32 0.16 0.666 0.346 1.039 0.559l0.401 0.28-0.041 0.44c0.008 0.154 0.067 0.292 0.161 0.4l-0.001-0.001 0.44 0.12 0.041 0.561v0.479c0 0.241 0.013 0.413 0.038 0.521 0.028 0.079 0.081 0.173 0.161 0.279l0.2 0.522c0 0.48 0.040 0.906 0.12 1.28 0.079 0.372 0.173 0.746 0.279 1.12 0.134 0.372 0.241 0.759 0.32 1.16 0.081 0.374 0.093 0.787 0.041 1.24 0.16-0.081 0.32-0.2 0.48-0.36l0.16-0.161 0.239-0.159 2.801-3.802-0.081-0.479 1-0.96c0.268-0.214 0.521-0.428 0.76-0.64 0.241-0.241 0.44-0.507 0.6-0.8l0.241-0.36c1.199-1.6 2.746-2.587 4.639-2.961l0.682-0.161 0.2 0.64c0.133 0.374 0.387 0.707 0.76 1 0.399 0.268 0.827 0.534 1.28 0.8l0.439 0.28c0.16 0.32 0.241 0.561 0.241 0.721 0 0.159-0.013 0.293-0.040 0.399l0.2 0.52c-0.294 0.773-0.614 1.334-0.96 1.681-0.346 0.32-0.707 0.627-1.080 0.919-0.293 0.241-0.559 0.48-0.8 0.721-0.228 0.225-0.415 0.49-0.552 0.783l-0.007 0.017-0.32 0.401c-0.667 0.346-1.093 0.852-1.28 1.519l-0.16 0.561h-0.602c-0.026 0-0.093 0.067-0.2 0.2-0.108 0.106-0.268 0.387-0.48 0.84-0.241 0.32-0.413 0.534-0.52 0.64l-0.201 0.2c-0.060 0.152-0.114 0.271-0.172 0.387l0.012-0.027c-0.026 0.108-0.067 0.241-0.12 0.401l-0.239 0.32c-0.21 0.177-0.383 0.389-0.514 0.629l-0.006 0.011c-0.108 0.187-0.227 0.413-0.36 0.68-0.108 0.241-0.228 0.494-0.361 0.76-0.133 0.241-0.32 0.48-0.559 0.721l0.079 0.439-0.32 0.28c-0.224 0.203-0.411 0.441-0.553 0.707l-0.007 0.014c-0.16 0.266-0.32 0.547-0.48 0.84-0.16 0.32-0.333 0.64-0.52 0.96s-0.428 0.613-0.721 0.879c-0.162 0.436-0.337 0.806-0.539 1.157l0.020-0.037c-0.133 0.268-0.374 0.588-0.721 0.96-0.32 1.28-1.079 2.653-2.28 4.12-0.026 0.294-0.12 0.586-0.28 0.881-0.149 0.298-0.295 0.546-0.455 0.784l0.016-0.025c-0.077 0.151-0.143 0.269-0.214 0.384l0.013-0.023-0.119 0.239-0.12 0.44c-0.16 0.293-0.333 0.532-0.521 0.719-0.16 0.187-0.32 0.361-0.48 0.521-0.090 0.061-0.168 0.127-0.239 0.199l-0 0c-0.049 0.075-0.102 0.14-0.16 0.2l0-0-0.68 0.241zM85.194 7.52c0.052 0.586 0.146 1.093 0.279 1.521 0.133 0.426 0.28 0.84 0.44 1.239 0.133 0.374 0.253 0.748 0.36 1.12 0.133 0.347 0.227 0.773 0.28 1.28-0.169 0.51-0.335 1.155-0.463 1.814l-0.017 0.106c-0.081 0.588-0.173 1.201-0.28 1.841-0.426 0.933-0.84 1.76-1.239 2.479-0.278 0.476-0.598 1.093-0.894 1.723l-0.066 0.157c-0.134 0.133-0.253 0.294-0.361 0.48-0.079 0.16-0.173 0.333-0.279 0.52-0.065 0.1-0.132 0.218-0.192 0.34l-0.009 0.021c-0.055 0.122-0.122 0.228-0.201 0.322l0.002-0.002-0.8-0.282-0.16 1.001-0.561 0.16-0.399 0.48c-0.481 0.849-1.011 1.582-1.611 2.252l0.011-0.012c-0.569 0.592-1.198 1.119-1.879 1.574l-0.041 0.026c-0.694 0.453-1.494 0.881-2.4 1.28-0.881 0.401-1.88 0.84-3 1.32-0.357-0.047-0.773-0.076-1.195-0.079l-0.005-0-0.92-0.081c-0.507 0-1.133-0.040-1.88-0.119-0.079-0.214-0.2-0.361-0.36-0.44-0.127-0.071-0.278-0.114-0.439-0.12l-0.002-0c-0.437-0.2-0.792-0.517-1.034-0.91l-0.006-0.010c-0.137-0.251-0.351-0.698-0.555-1.15l-0.085-0.209c-0.152-0.337-0.286-0.6-0.429-0.856l0.029 0.056c-0.168-0.335-0.314-0.597-0.47-0.852l0.029 0.052 0.681-0.201-0.881-0.96c-0.053-0.080-0.12-0.146-0.197-0.198l-0.003-0.002c-0.073-0.072-0.138-0.15-0.196-0.234l-0.004-0.005-0.041-0.64c-0.072-1.493-0.115-3.256-0.119-5.028l-0-0.013c0.026-1.546 0.239-2.92 0.64-4.12v-0.439c0.079-0.588 0.16-1.068 0.239-1.44 0.081-0.401 0.147-0.773 0.2-1.12 0.081-0.588 0.201-1.134 0.361-1.64 0.372-0.081 0.653-0.228 0.84-0.44 0.187-0.241 0.346-0.453 0.48-0.64 0.374-0.027 0.627 0.026 0.76 0.16 0.133 0.133 0.266 0.346 0.399 0.64 0.133 0.239 0.294 0.507 0.48 0.8 0.214 0.293 0.52 0.52 0.92 0.68 0.054 0.214 0.12 0.44 0.2 0.68 0.108 0.214 0.214 0.453 0.32 0.721 0.214 0.453 0.401 0.933 0.561 1.44 0.187 0.48 0.293 0.947 0.32 1.4-0.265 0.505-0.485 1.092-0.63 1.707l-0.010 0.051c-0.133 0.667-0.227 1.348-0.28 2.040-0.026 0.667-0.013 1.32 0.040 1.96 0.081 0.614 0.2 1.134 0.36 1.562l0.241 0.518 0.68-0.079c0.897-0.235 1.617-0.467 2.321-0.733l-0.16 0.053c0.666-0.268 1.28-0.573 1.839-0.92 0.561-0.346 1.093-0.746 1.6-1.201 0.507-0.479 1.041-1.027 1.6-1.638 0.561-0.614 1.041-1.308 1.44-2.081 0.428-0.8 0.773-1.626 1.041-2.479 0.293-0.854 0.507-1.693 0.64-2.52 0.16-0.854 0.266-1.654 0.32-2.4 0.453-0.16 0.68-0.48 0.68-0.96l-0.081-0.44c-0.106-0.16-0.106-0.346 0-0.559 0.161-0.507 0.534-0.893 1.121-1.161 0.426 0.268 0.799 0.561 1.119 0.881 0.347 0.32 0.667 0.64 0.96 0.96zM93.632 26.12c-0.294 1.068-0.561 1.88-0.8 2.441-0.214 0.532-0.547 1.093-1 1.679-0.347-0.054-0.588-0.013-0.721 0.12-0.131 0.131-0.275 0.249-0.429 0.353l-0.010 0.007c-0.241 0.054-0.413 0.054-0.521 0s-0.199-0.121-0.279-0.2l0 0c-0.073-0.050-0.177-0.116-0.283-0.18l-0.037-0.021c-0.108-0.052-0.282-0.079-0.521-0.079-0.058-0.234-0.126-0.434-0.21-0.626l0.010 0.026c-0.054-0.187-0.227-0.253-0.52-0.2 0.033-0.105 0.051-0.226 0.051-0.351 0-0.059-0.004-0.118-0.012-0.175l0.001 0.007c-0.022-0.15-0.064-0.284-0.124-0.409l0.004 0.009c-0.033-0.173-0.060-0.294-0.090-0.415l0.012 0.055c-0.008-0.047-0.012-0.102-0.012-0.157 0-0.115 0.019-0.226 0.054-0.33l-0.002 0.007c-0.133 0-0.241-0.093-0.32-0.28-0.097-0.224-0.191-0.408-0.294-0.585l0.014 0.026c0.081-0.48 0.16-0.934 0.241-1.361 0.079-0.426 0.173-0.827 0.28-1.199 0.133-0.374 0.239-0.748 0.32-1.12 0.025-0.116 0.039-0.25 0.039-0.387 0-0.28-0.058-0.546-0.164-0.786l0.005 0.013c0.106 0.081 0.187 0.068 0.239-0.038 0.055-0.139 0.097-0.302 0.119-0.471l0.001-0.011c0.026-0.212 0.040-0.413 0.040-0.599 0-0.214-0.013-0.388-0.040-0.521 0.266-0.692 0.48-1.4 0.64-2.12 0.187-0.746 0.346-1.48 0.48-2.2 0.16-0.719 0.32-1.426 0.48-2.12 0.168-0.734 0.388-1.375 0.666-1.983l-0.026 0.063c0.294-0.054 0.614-0.013 0.96 0.12 0.374 0.106 0.6 0.253 0.68 0.44 0.707-0.55 1.315-1.183 1.822-1.893l0.019-0.027c0.532-0.774 1.080-1.521 1.64-2.24 0.556-0.714 1.16-1.343 1.822-1.905l0.018-0.015c0.692-0.561 1.559-0.893 2.598-1.001 0.534 0.401 1.121 0.814 1.761 1.24 0.666 0.401 1.213 0.934 1.64 1.6 0.214 0.106 0.387 0.227 0.52 0.36 0.16 0.108 0.347 0.227 0.561 0.361v0.48c0.32 0.293 0.573 0.64 0.76 1.039 0.212 0.374 0.399 0.787 0.559 1.24 0.16 0.426 0.32 0.867 0.48 1.32 0.16 0.426 0.346 0.84 0.561 1.24-0.047 0.106-0.076 0.229-0.081 0.358l-0 0.002c0 0.081 0.013 0.173 0.040 0.28 0.054 0.106 0.093 0.212 0.12 0.32 0.026 0.106 0.026 0.253 0 0.44-0.081 1.172-0.467 2.12-1.16 2.839-0.685 0.728-1.492 1.331-2.391 1.778l-0.049 0.022c-0.853 0.414-1.875 0.809-2.932 1.123l-0.149 0.038c-1.093 0.32-2.080 0.666-2.959 1.039 0 0.108 0.040 0.16 0.12 0.16 0.106 0 0.146 0.067 0.119 0.201 0.64 0.399 1.147 0.719 1.521 0.96 0.372 0.239 0.719 0.439 1.039 0.599 0.347 0.16 0.707 0.307 1.080 0.44 0.401 0.106 0.947 0.241 1.64 0.401 0.694 0.16 1.228 0.293 1.6 0.399 0.401 0.081 0.76 0.16 1.080 0.241l0.96 0.16c0.346 0.026 0.827 0.067 1.44 0.119 0.241 0.241 0.44 0.534 0.6 0.881 0.187 0.32 0.307 0.653 0.36 1 0.054 0.32 0.067 0.64 0.040 0.96-0.016 0.276-0.118 0.525-0.281 0.723l0.002-0.002c0.026 0.079 0.079 0.119 0.16 0.119 0.048-0.013 0.103-0.020 0.16-0.020s0.112 0.007 0.165 0.021l-0.005-0.001c-0.16 0.108-0.294 0.241-0.401 0.401l-0.32 0.48c-0.106 0.16-0.227 0.293-0.36 0.399-0.148 0.138-0.343 0.227-0.558 0.241l-0.003 0c-0.827 0.32-1.866 0.333-3.119 0.040-1.254-0.266-2.84-0.773-4.76-1.521-1.243-0.468-2.022-0.791-2.793-1.129l0.433 0.169c-0.586-0.293-1.106-0.572-1.559-0.84-0.428-0.293-0.827-0.599-1.201-0.919-0.336-0.311-0.752-0.69-1.172-1.066l-0.108-0.095zM99.352 12.401c-0.294 0.426-0.627 0.813-1 1.16-0.347 0.346-0.694 0.707-1.041 1.080-0.32 0.346-0.614 0.746-0.881 1.199-0.268 0.437-0.464 0.949-0.556 1.495l-0.004 0.025c1.085-0.138 2.071-0.405 2.996-0.788l-0.077 0.028c1.014-0.428 1.974-0.827 2.88-1.201-0.106-0.827-0.399-1.492-0.879-1.999-0.453-0.507-0.934-0.84-1.44-1z"></path>
</symbol>
<symbol id="logo_2" viewBox="0 0 32 32">
<path d="M14.656 10.217c2.442 1.139 5.486-0.198 6.784-2.981l0.067-0.142c1.258-2.698 2.001-4.288-0.401-5.408-0.538-0.244-1.17-0.454-1.826-0.6l-0.066-0.012-0.027-0.029-0.064 0.010c-2.586-0.538-5.526-0.138-6.545 2.049-1.297 2.784-0.367 5.975 2.077 7.113zM14.129 4.494c0.755-0.33 1.801-0.516 3.136-0.25 1.149 0.23 2.084 0.211 2.803 0.081 0.006 0.085 0.010 0.184 0.010 0.284 0 0.655-0.15 1.275-0.417 1.828l0.011-0.025c-0.842 1.809-2.723 2.723-4.191 2.038-1.317-0.614-1.861-2.308-1.352-3.955zM8.556 9.221c-0.86 0.877-1.965 1.317-3.11 1.236-0.374-0.026-1.201-0.438-1.729-0.701-0.137-0.069-0.253-0.128-0.338-0.166-1.605-0.749-1.93-2.077-1.788-4.16 0.183-2.615 2.205-4.612 4.509-4.452 1.079 0.073 1.655 0.858 2.328 1.773 0.251 0.346 0.36 0.492 0.47 0.637l-0.137-0.189c0.635 0.845 1.271 1.691 1.194 2.807-0.086 1.238-0.582 2.38-1.399 3.215zM5.965 2.924c-1.233-0.086-2.322 1.1-2.429 2.641-0.105 1.541 0.812 2.863 2.043 2.948 0.567 0.038 1.129-0.193 1.581-0.655 0.493-0.504 0.794-1.21 0.849-1.984 0.052-0.776-0.148-1.516-0.568-2.083-0.215-0.297-0.494-0.534-0.819-0.693l-0.013-0.006c-0.188-0.090-0.406-0.15-0.637-0.167l-0.006-0zM16.678 12.134c2.468 1.164 4.227 3.474 4.601 6.224l0.005 0.042 0.891 6.627c0.030 0.208 0.047 0.448 0.047 0.692 0 0.908-0.238 1.761-0.654 2.5l0.013-0.025c-0.538 0.965-1.352 1.722-2.334 2.174l-0.032 0.013c-0.622 0.292-1.351 0.462-2.12 0.462-0.384 0-0.757-0.042-1.117-0.123l0.034 0.006c-1.115-0.243-2.068-0.823-2.773-1.626l-0.005-0.006c-1.791-2.029-4.368-3.329-7.25-3.42l-0.016-0-0.072-0.003c-1.152-0.023-2.206-0.426-3.047-1.087l0.011 0.008c-0.855-0.666-1.486-1.583-1.785-2.639l-0.009-0.036c-0.12-0.412-0.189-0.885-0.189-1.374 0-0.663 0.127-1.296 0.357-1.877l-0.012 0.034c0.408-1.046 1.118-1.901 2.022-2.477l0.021-0.012 5.649-3.578c1.227-0.792 2.725-1.263 4.334-1.263 1.244 0 2.423 0.282 3.475 0.785l-0.049-0.021zM20.109 24.296c-3.068-1.219-7.599-2.12-7.969 1.313-1.756-1.135-3.889-1.831-6.182-1.886l-0.015-0-0.049-0.001c-1.407-0.047-2.577-1.007-2.941-2.303l-0.005-0.022c-0.075-0.257-0.119-0.553-0.119-0.858 0-1.006 0.471-1.903 1.204-2.482l0.007-0.005c0.724-0.512 1.919-0.732 4.266 0.274 3.584 1.536 3.626-0.64 2.56-1.92 1.28 0 3.968-0.384 4.48-1.92 0.097-0.293 0.119-0.544 0.084-0.759 2.092 0.802 3.612 2.66 3.917 4.904l0.004 0.032 0.758 5.635zM24.275 15.811c-0.406-0.191-0.754-0.431-1.057-0.719l0.002 0.002c-1.798-1.7-1.69-4.746 0.243-6.792 0.915-0.969 2.107-1.578 3.356-1.714 0.86-0.093 1.053 0.219 1.339 0.685 0.148 0.242 0.323 0.525 0.627 0.812 0.256 0.243 0.595 0.48 0.947 0.726 0.874 0.612 1.827 1.276 1.779 2.213-0.065 1.254-0.607 2.478-1.523 3.447-1.591 1.684-3.932 2.172-5.714 1.34zM27.031 8.527c-0.788 0.086-1.551 0.481-2.15 1.114-1.193 1.265-1.467 3.694-0.449 4.655 1.018 0.963 2.646 0.623 3.84-0.64 0.598-0.632 1.251-1.943 1.293-2.734 0.038-0.733-0.201-1.382-0.672-1.827-0.471-0.445-1.133-0.648-1.861-0.568zM31.082 19.162c-1.376-2.116-3.834-2.086-6.136-0.836-2.301 1.251-2.981 3.222-1.88 5.252 0.402 0.741 1.025 1.297 1.768 1.642 1.293 0.602 2.947 0.57 4.411-0.224 2.301-1.251 2.94-3.804 1.838-5.834zM28.314 23.281c-1.359 0.737-2.944 0.453-3.533-0.634-0.431-0.795-0.211-1.805 0.472-2.577 1.38-0.236 3.126-0.451 4.265-0.375 0.070 0.086 0.134 0.179 0.188 0.282 0.589 1.084-0.037 2.568-1.393 3.304z"></path>
</symbol>
<symbol id="logo_3" viewBox="0 0 73 32">
<path d="M0.612 19.554c0.027-0.107 0.079-0.146 0.16-0.12 0.107 0 0.199-0.013 0.28-0.040-0.213-0.221-0.358-0.51-0.399-0.831l-0.001-0.007c-0.041-0.355-0.185-0.669-0.401-0.921l0.002 0.002c0.047-0.113 0.088-0.246 0.117-0.385l0.003-0.015c0.053-0.133 0.173-0.186 0.359-0.16-0.033-0.211-0.052-0.455-0.052-0.703 0-0.331 0.034-0.653 0.098-0.965l-0.005 0.031c0.115-0.545 0.28-1.025 0.496-1.477l-0.017 0.039c0.239-0.453 0.506-0.892 0.799-1.318 0.32-0.453 0.626-0.905 0.919-1.357 0.239-0.053 0.386-0.027 0.439 0.079 0.053 0.079 0.147 0.053 0.28-0.079 0.427-0.293 0.719-0.613 0.879-0.959 0.159-0.372 0.239-0.772 0.239-1.197 0.239-0.693 0.505-1.371 0.799-2.037 0.32-0.692 0.678-1.331 1.079-1.916 0.385-0.57 0.805-1.066 1.273-1.514l0.003-0.003c0.415-0.423 0.905-0.772 1.447-1.025l0.031-0.013c0.372-0.32 0.838-0.613 1.399-0.879 0.525-0.246 1.139-0.452 1.779-0.588l0.057-0.010c0.609-0.152 1.307-0.239 2.026-0.239 0.003 0 0.007 0 0.010 0h-0.001c0.093-0.005 0.202-0.008 0.311-0.008 0.571 0 1.124 0.075 1.649 0.217l-0.044-0.010c0.134 0.053 0.213 0.027 0.241-0.079 0.026-0.133 0.092-0.2 0.199-0.2 1.331 0.16 2.516 0.427 3.553 0.799 1.065 0.373 1.971 0.892 2.715 1.557 0.506 0.799 0.986 1.664 1.438 2.596 0.453 0.905 0.799 1.863 1.038 2.875 0.267 0.985 0.386 2.010 0.36 3.074-0.036 1.16-0.283 2.252-0.702 3.255l0.022-0.061c-0.924 1.157-2.052 2.108-3.337 2.808l-0.057 0.029c-1.214 0.644-2.643 1.24-4.128 1.706l-0.185 0.050c-1.517 0.453-3.1 0.825-4.751 1.118-1.624 0.293-3.207 0.613-4.753 0.959 0.013 0.345 0.020 0.751 0.020 1.158s-0.007 0.813-0.022 1.216l0.002-0.058c-0.032 0.883-0.132 1.72-0.295 2.535l0.017-0.099c-0.152 0.893-0.374 1.685-0.668 2.44l0.029-0.084c-0.287 0.823-0.666 1.537-1.134 2.181l0.016-0.024c-0.533-0.027-1.092 0.026-1.677 0.159-0.559 0.133-1.065 0.267-1.517 0.399l-0.64-0.399c-0.208-0.111-0.453-0.183-0.713-0.199l-0.005-0c0.079-0.32 0-0.652-0.239-0.999-0.213-0.346-0.44-0.678-0.679-0.998-0.185-0.287-0.336-0.619-0.433-0.973l-0.006-0.025c-0.055-0.346 0.107-0.652 0.479-0.919-0.213-0.186-0.32-0.479-0.32-0.878 0.107 0.107 0.239 0.159 0.399 0.159-0.053-0.479 0-1.051 0.16-1.716 0.186-0.666 0.332-1.318 0.439-1.957 0.134-0.666 0.16-1.265 0.081-1.797-0.081-0.559-0.399-0.959-0.959-1.198zM10.994 10.21c-0.107 0.293-0.2 0.559-0.28 0.799-0.053 0.213-0.12 0.412-0.199 0.599-0.097 0.224-0.19 0.408-0.294 0.585l0.014-0.026c-0.081 0.186-0.173 0.399-0.28 0.64 0.054 0.16 0.169 0.287 0.316 0.356l0.004 0.002c0.151 0.072 0.265 0.2 0.318 0.356l0.001 0.004c0.322-0.167 0.695-0.305 1.086-0.393l0.031-0.006c0.373-0.107 0.747-0.186 1.119-0.239s0.745-0.12 1.118-0.2c0.373-0.079 0.759-0.213 1.158-0.399 0.35-0.168 0.762-0.318 1.19-0.428l0.047-0.010c0.453-0.134 0.892-0.267 1.318-0.399 0.427-0.134 0.839-0.28 1.239-0.439 0.401-0.187 0.745-0.428 1.038-0.72l-0 0c-0.373-0.346-0.932-0.652-1.677-0.919-0.719-0.26-1.55-0.432-2.414-0.479l-0.022-0.001c-0.232-0.022-0.503-0.035-0.776-0.035-0.645 0-1.273 0.071-1.877 0.206l0.057-0.011c-0.872 0.19-1.629 0.597-2.238 1.161l0.003-0.003zM47.251 8.334c0.026 0.186 0.026 0.332 0 0.439-0.001 0.086-0.015 0.168-0.042 0.245l0.002-0.005v0.28c0 0.081 0.026 0.213 0.079 0.399-0.558 0.905-1.211 1.531-1.956 1.877-0.719 0.32-1.505 0.558-2.356 0.718-0.853 0.133-1.73 0.28-2.636 0.439-0.878 0.161-1.756 0.507-2.636 1.039-0.346-0.134-0.665-0.134-0.958 0-0.267 0.133-0.666 0.173-1.197 0.119-0.164 0.161-0.365 0.285-0.589 0.357l-0.011 0.003c-0.294 0.065-0.535 0.134-0.77 0.214l0.051-0.015c0.107 0.241 0.147 0.493 0.12 0.759 0 0.241 0.040 0.44 0.12 0.6 0.933 0.079 1.957 0.066 3.076-0.040 1.145-0.107 2.263-0.173 3.354-0.199 0.026 0.133 0.013 0.225-0.040 0.28-0.053 0.026-0.066 0.092-0.040 0.199 0.187 0.133 0.373 0.306 0.559 0.519l0.559 0.559c0.186 0.186 0.372 0.346 0.558 0.479 0.213 0.107 0.453 0.147 0.719 0.12 0.107 0.213 0.173 0.453 0.199 0.719 0.053 0.239 0.027 0.492-0.079 0.759-0.427 0.293-0.852 0.599-1.278 0.919-0.427 0.293-0.878 0.558-1.358 0.799-0.453 0.239-0.945 0.439-1.477 0.599-0.506 0.133-1.079 0.186-1.717 0.16h-0.32c-0.052 0-0.133-0.040-0.239-0.12-0.213 0.133-0.519 0.173-0.919 0.119-0.372-0.052-0.665-0.012-0.877 0.121-0.294-0.134-0.653-0.186-1.079-0.16-0.399 0-0.759-0.053-1.079-0.16-0.427 0.559-0.812 1.158-1.158 1.797-0.312 0.562-0.621 1.234-0.883 1.929l-0.036 0.109c0.905 0.133 1.65 0.186 2.236 0.159 0.612-0.026 1.185-0.066 1.716-0.119 0.533-0.081 1.079-0.147 1.638-0.201 0.558-0.079 1.265-0.105 2.116-0.079 0.533-0.293 1.158-0.479 1.877-0.558 0.767-0.106 1.454-0.273 2.113-0.502l-0.077 0.023c0.213 0.079 0.399 0.225 0.559 0.439 0.16 0.186 0.306 0.372 0.439 0.559 0.16 0.16 0.32 0.306 0.48 0.439 0.13 0.105 0.297 0.169 0.479 0.169 0.042 0 0.083-0.003 0.123-0.010l-0.004 0.001c0.107 0.107 0.173 0.239 0.2 0.399 0.052 0.133 0.092 0.267 0.119 0.399 0.027 0.133 0.068 0.252 0.121 0.359 0.079 0.081 0.199 0.107 0.359 0.081-0.399 0.877-0.865 1.557-1.399 2.036-0.494 0.441-1.078 0.794-1.72 1.027l-0.037 0.012c-0.665 0.239-1.41 0.427-2.235 0.558-0.799 0.134-1.691 0.293-2.676 0.48-0.239 0.053-0.439 0.040-0.599-0.040-0.157-0.051-0.338-0.080-0.525-0.080-0.012 0-0.024 0-0.036 0l0.002-0c-0.612 0.133-1.344 0.252-2.196 0.359-0.621 0.081-1.34 0.128-2.069 0.128-0.185 0-0.369-0.003-0.553-0.009l0.027 0.001c-0.904-0.025-1.767-0.154-2.592-0.377l0.077 0.018c-0.799-0.187-1.452-0.533-1.957-1.038-0.197-0.167-0.349-0.383-0.435-0.63l-0.003-0.010c-0.055-0.265-0.228-0.465-0.52-0.599-0.038-0.443-0.094-0.839-0.172-1.227l0.012 0.069c-0.079-0.427-0.159-0.865-0.239-1.317-0.056-0.298-0.127-0.776-0.185-1.257l-0.014-0.142c-0.027-0.453 0-0.865 0.079-1.237 0.081-0.399 0.239-0.759 0.479-1.079 0.267-0.32 0.36-0.665 0.28-1.038 0.134-0.026 0.213-0.092 0.241-0.199 0.026-0.134 0.133-0.186 0.319-0.16 0.16-0.479 0.332-0.932 0.519-1.357 0.186-0.427 0.372-0.839 0.559-1.239 0.213-0.399 0.412-0.799 0.599-1.197 0.213-0.427 0.412-0.892 0.599-1.399-0.343-0.31-0.624-0.681-0.828-1.096l-0.009-0.021c-0.136-0.345-0.26-0.759-0.35-1.187l-0.009-0.052c-0.081-0.427-0.147-0.851-0.2-1.278-0.062-0.512-0.16-0.971-0.295-1.415l0.015 0.058c0.267-0.399 0.587-0.719 0.959-0.959 0.368-0.249 0.79-0.465 1.238-0.626l0.040-0.013c0.404-0.148 0.9-0.286 1.409-0.388l0.069-0.012c0.532-0.107 1.090-0.225 1.677-0.359 0.701-0.248 1.649-0.523 2.614-0.754l0.221-0.045c0.624-0.149 1.465-0.302 2.316-0.42l0.159-0.018c0.484-0.091 1.356-0.218 2.234-0.328l0.321-0.033c0.878-0.107 1.876-0.265 2.995-0.479 0.239 0.239 0.466 0.359 0.678 0.359 0.107-0.239 0.226-0.306 0.36-0.199 0.16 0.079 0.225 0 0.199-0.239 0.267 0.452 0.6 0.838 0.999 1.158 0.425 0.293 0.891 0.545 1.397 0.759z"></path>
<path d="M69.013 11.608c-0.666 0-1.384 0.053-2.157 0.16-0.772 0.081-1.53 0.173-2.276 0.28-0.533 0.079-1.052 0.147-1.557 0.2-0.479 0.052-0.919 0.092-1.318 0.119-0.186 0.587-0.373 1.106-0.559 1.559-0.186 0.452-0.385 0.891-0.599 1.317-0.213 0.453-0.412 0.919-0.6 1.399-0.159 0.452-0.319 0.945-0.479 1.477-0.265 0.427-0.492 0.825-0.678 1.197-0.158 0.341-0.295 0.741-0.391 1.157l-0.008 0.043c-0.32 0.399-0.559 0.825-0.719 1.278-0.117 0.291-0.24 0.663-0.342 1.044l-0.017 0.074-0.16 0.479c-0.16 0.16-0.252 0.293-0.28 0.399-0.042 0.1-0.111 0.182-0.197 0.239l-0.002 0.001c-0.035 0.327-0.134 0.624-0.285 0.888l0.006-0.011c-0.047 0.113-0.088 0.247-0.117 0.386l-0.003 0.015c-0.021 0.070-0.035 0.152-0.040 0.236l-0 0.003c0 0.265-0.066 0.439-0.199 0.519 0.026 0.133 0.026 0.28 0 0.439l-0.081 0.399c-0.079 0.32-0.107 0.572-0.079 0.759 0.079 0.107 0.147 0.2 0.199 0.28 0.082 0.085 0.139 0.195 0.16 0.316l0.001 0.004c0.16 0.107 0.28 0.173 0.359 0.199 0.107 0.081 0.267 0.173 0.48 0.28l0.359 0.399c0.133 0.772 0.013 1.384-0.359 1.837-0.399 0.505-1.079 0.759-2.036 0.759h-0.48c-0.133-0.133-0.213-0.239-0.239-0.32-0.213-0.079-0.386-0.146-0.519-0.199-0.151-0.070-0.274-0.18-0.357-0.316l-0.002-0.004c-0.471-0.211-0.747-0.344-1.020-0.482l0.181 0.082-0.359-0.199v-0.479c-0.179-0.229-0.327-0.493-0.432-0.779l-0.007-0.020c-0.064-0.217-0.133-0.513-0.19-0.813l-0.010-0.065c-0.059-0.267-0.127-0.494-0.211-0.714l0.012 0.035c-0.051-0.212-0.134-0.399-0.245-0.566l0.004 0.007c-0.052-1.544 0.094-2.848 0.44-3.913 0.346-1.064 0.705-2.089 1.079-3.074l0.639-1.596c0.213-0.559 0.399-1.132 0.558-1.719l0.36-0.398c0.186-0.427 0.332-0.772 0.439-1.038l0.399-0.878c0.081-0.186 0.147-0.359 0.2-0.519 0.079-0.187 0.146-0.346 0.199-0.48-0.005-0-0.010-0-0.015-0-0.15 0-0.296 0.015-0.437 0.043l0.014-0.002c-0.134 0-0.267 0.013-0.399 0.040-0.16 0.026-0.307 0.053-0.44 0.079h-0.399c-0.018 0.001-0.039 0.001-0.061 0.001-0.12 0-0.237-0.015-0.348-0.044l0.010 0.002c-0.275 0.127-0.597 0.2-0.936 0.2-0.008 0-0.015-0-0.023-0h-0.639c-0.046-0.025-0.101-0.039-0.159-0.040h-0c-0.267 0-0.48 0.040-0.64 0.12h-1.317c-0.073 0.003-0.141 0.018-0.205 0.042l0.005-0.002h-0.199c-0.186 0-0.386-0.013-0.599-0.040-0.258-0.070-0.484-0.165-0.693-0.287l0.013 0.007c-0.32-0.425-0.533-0.652-0.64-0.678l-0.359-0.479c-0.026-0.166-0.068-0.313-0.124-0.454l0.005 0.014c-0.053-0.16-0.107-0.332-0.16-0.519-0.107-0.267-0.213-0.545-0.32-0.839-0.076-0.314-0.119-0.674-0.119-1.045 0-0.026 0-0.051 0.001-0.077l-0 0.004c0.025-0.213 0.078-0.372 0.159-0.479 0.079-0.107 0.146-0.2 0.199-0.28l0.12-0.599 0.519 0.039h1.119c0.851 0 1.717-0.026 2.596-0.079-1.17 0.072-0.234-0.013 0.703-0.096l2.011-0.143 1.598-0.16c0.559-0.053 1.132-0.107 1.719-0.16 0.105-0.239 0.212-0.466 0.319-0.679l0.398-0.199c0.48-0.027 0.813 0.040 0.999 0.199 0.213 0.134 0.386 0.267 0.519 0.399l1.756-0.159c0.855-0.11 1.481-0.208 2.102-0.319l-0.265 0.039c0.399-0.075 1.327-0.202 2.259-0.315l0.456-0.045c0.932-0.107 1.824-0.159 2.675-0.159 0.373 0 0.732 0.012 1.079 0.039s0.665 0.068 0.959 0.12l0.399 0.28c0.079 0.16 0.186 0.307 0.32 0.439l0.478 0.401c0.32 0.293 0.64 0.639 0.959 1.038 0.32 0.399 0.439 0.984 0.359 1.756-0.213 0.32-0.372 0.506-0.479 0.559l-0.359 0.479-0.399-0.039c-0.004-0-0.009-0-0.014-0-0.153 0-0.299 0.029-0.432 0.082l0.008-0.003c-0.153 0.031-0.288 0.073-0.416 0.125l0.015-0.005-0.32 0.16c-0.066 0.019-0.187 0.046-0.309 0.071l-0.050 0.008h-0.599c-0.127-0.026-0.274-0.040-0.424-0.040-0.005 0-0.010 0-0.016 0h0.001z"></path>
</symbol>
</defs>
</svg>
